<?xml version="1.0" standalone="no"?><!DOCTYPE svg PUBLIC "-//W3C//DTD SVG 1.1//EN" "http://www.w3.org/Graphics/SVG/1.1/DTD/svg11.dtd"><svg t="1678417335693" class="icon" viewBox="0 0 1024 1024" version="1.1" xmlns="http://www.w3.org/2000/svg" p-id="2122" xmlns:xlink="http://www.w3.org/1999/xlink" width="200" height="200"><path d="M298.666667 244.053333c-39.253333 0-69.973333 32.426667-71.68 71.68v426.666667c0 39.253333 32.426667 69.973333 71.68 71.68h426.666666c39.253333 0 69.973333-32.426667 71.68-71.68v-426.666667c0-39.253333-32.426667-69.973333-71.68-71.68h-426.666666z m0-71.68h426.666666c40.96 0 73.386667 15.36 100.693334 40.96 27.306667 27.306667 40.96 61.44 40.96 100.693334v426.666666c0 40.96-15.36 73.386667-40.96 100.693334-27.306667 27.306667-61.44 40.96-100.693334 40.96h-426.666666c-39.253333 0-73.386667-15.36-100.693334-40.96-27.306667-27.306667-40.96-61.44-40.96-100.693334v-426.666666c0-39.253333 15.36-73.386667 40.96-100.693334 27.306667-25.6 59.733333-39.253333 100.693334-40.96zM13.653333 529.066667c0-10.24 3.413333-18.773333 10.24-25.6 6.826667-6.826667 15.36-10.24 25.6-10.24h141.653334v71.68H49.493333c-10.24 0-18.773333-3.413333-25.6-10.24-6.826667-6.826667-10.24-15.36-10.24-25.6z m0-177.493334c0-10.24 3.413333-18.773333 10.24-25.6 6.826667-6.826667 15.36-10.24 25.6-10.24h141.653334v71.68H49.493333c-10.24 0-18.773333-3.413333-25.6-10.24-6.826667-6.826667-10.24-17.066667-10.24-25.6z m0 354.986667c0-10.24 3.413333-18.773333 10.24-25.6 6.826667-6.826667 15.36-10.24 25.6-10.24h141.653334v71.68H49.493333c-10.24 0-18.773333-3.413333-25.6-10.24-6.826667-6.826667-10.24-15.36-10.24-25.6zM1010.346667 529.066667c0 10.24-3.413333 18.773333-10.24 25.6-6.826667 6.826667-15.36 10.24-25.6 10.24h-141.653334v-71.68h141.653334c10.24 0 18.773333 3.413333 25.6 10.24 6.826667 6.826667 10.24 15.36 10.24 25.6z m0-177.493334c0 10.24-3.413333 18.773333-10.24 25.6-6.826667 6.826667-15.36 10.24-25.6 10.24h-141.653334v-71.68h141.653334c10.24 0 18.773333 3.413333 25.6 10.24 6.826667 6.826667 10.24 15.36 10.24 25.6z m0 354.986667c0 10.24-3.413333 18.773333-10.24 25.6-6.826667 6.826667-15.36 10.24-25.6 10.24h-141.653334v-71.68h141.653334c10.24 0 18.773333 3.413333 25.6 10.24 6.826667 6.826667 10.24 15.36 10.24 25.6z m-708.266667-78.506667v-146.773333h44.373333l27.306667 100.693333 25.6-100.693333H443.733333v146.773333h-27.306666V512l-29.013334 116.053333H358.4L329.386667 512v116.053333h-27.306667z m264.533333-54.613333l29.013334 8.533333c-5.12 15.36-11.946667 27.306667-22.186667 35.84s-23.893333 11.946667-39.253333 11.946667c-18.773333 0-35.84-6.826667-47.786667-20.48s-18.773333-30.72-18.773333-54.613333c0-23.893333 6.826667-42.666667 18.773333-56.32 11.946667-13.653333 29.013333-20.48 49.493333-20.48 18.773333 0 32.426667 5.12 44.373334 15.36 6.826667 6.826667 11.946667 15.36 15.36 27.306666l-30.72 8.533334c-1.706667-6.826667-5.12-13.653333-10.24-18.773334-5.12-5.12-11.946667-6.826667-20.48-6.826666-10.24 0-20.48 3.413333-25.6 11.946666-6.826667 8.533333-10.24 20.48-10.24 37.546667 0 18.773333 3.413333 32.426667 10.24 39.253333s15.36 11.946667 25.6 11.946667c8.533333 0 15.36-1.706667 20.48-6.826667s8.533333-11.946667 11.946666-23.893333z m52.906667-92.16H648.533333v80.213333c0 11.946667 0 20.48 1.706667 23.893334 1.706667 6.826667 5.12 10.24 8.533333 13.653333s11.946667 5.12 18.773334 5.12c8.533333 0 15.36-1.706667 18.773333-5.12s6.826667-6.826667 8.533333-11.946667 1.706667-13.653333 1.706667-25.6v-81.92h29.013333v76.8c0 17.066667 0 30.72-1.706666 37.546667s-5.12 13.653333-8.533334 18.773333-10.24 8.533333-17.066666 11.946667-17.066667 5.12-29.013334 5.12c-13.653333 0-23.893333-1.706667-32.426666-5.12s-13.653333-6.826667-17.066667-11.946667-6.826667-10.24-8.533333-17.066666c-1.706667-8.533333-3.413333-20.48-3.413334-37.546667v-76.8z" p-id="2123"></path></svg>