<svg class="icon" viewBox="0 0 1024 1024" xmlns="http://www.w3.org/2000/svg" width="200" height="200"><path d="M298.667 244.053c-39.254 0-69.974 32.427-71.68 71.68V742.4c0 39.253 32.426 69.973 71.68 71.68h426.666c39.254 0 69.974-32.427 71.68-71.68V315.733c0-39.253-32.426-69.973-71.68-71.68H298.667zm0-71.68h426.666c40.96 0 73.387 15.36 100.694 40.96 27.306 27.307 40.96 61.44 40.96 100.694v426.666c0 40.96-15.36 73.387-40.96 100.694-27.307 27.306-61.44 40.96-100.694 40.96H298.667c-39.254 0-73.387-15.36-100.694-40.96-27.306-27.307-40.96-61.44-40.96-100.694V314.027c0-39.254 15.36-73.387 40.96-100.694 27.307-25.6 59.734-39.253 100.694-40.96zM13.653 529.067c0-10.24 3.414-18.774 10.24-25.6 6.827-6.827 15.36-10.24 25.6-10.24h141.654v71.68H49.493c-10.24 0-18.773-3.414-25.6-10.24-6.826-6.827-10.24-15.36-10.24-25.6zm0-177.494c0-10.24 3.414-18.773 10.24-25.6 6.827-6.826 15.36-10.24 25.6-10.24h141.654v71.68H49.493c-10.24 0-18.773-3.413-25.6-10.24-6.826-6.826-10.24-17.066-10.24-25.6zm0 354.987c0-10.24 3.414-18.773 10.24-25.6 6.827-6.827 15.36-10.24 25.6-10.24h141.654v71.68H49.493c-10.24 0-18.773-3.413-25.6-10.24-6.826-6.827-10.24-15.36-10.24-25.6zm996.694-177.493c0 10.24-3.414 18.773-10.24 25.6-6.827 6.826-15.36 10.24-25.6 10.24H832.853v-71.68h141.654c10.24 0 18.773 3.413 25.6 10.24 6.826 6.826 10.24 15.36 10.24 25.6zm0-177.494c0 10.24-3.414 18.774-10.24 25.6-6.827 6.827-15.36 10.24-25.6 10.24H832.853v-71.68h141.654c10.24 0 18.773 3.414 25.6 10.24 6.826 6.827 10.24 15.36 10.24 25.6zm0 354.987c0 10.24-3.414 18.773-10.24 25.6-6.827 6.827-15.36 10.24-25.6 10.24H832.853v-71.68h141.654c10.24 0 18.773 3.413 25.6 10.24 6.826 6.827 10.24 15.36 10.24 25.6zM302.08 628.053V481.28h44.373l27.307 100.693 25.6-100.693h44.373v146.773h-27.306V512l-29.014 116.053H358.4L329.387 512v116.053H302.08zm264.533-54.613 29.014 8.533c-5.12 15.36-11.947 27.307-22.187 35.84s-23.893 11.947-39.253 11.947c-18.774 0-35.84-6.827-47.787-20.48s-18.773-30.72-18.773-54.613c0-23.894 6.826-42.667 18.773-56.32 11.947-13.654 29.013-20.48 49.493-20.48 18.774 0 32.427 5.12 44.374 15.36 6.826 6.826 11.946 15.36 15.36 27.306l-30.72 8.534c-1.707-6.827-5.12-13.654-10.24-18.774-5.12-5.12-11.947-6.826-20.48-6.826-10.24 0-20.48 3.413-25.6 11.946-6.827 8.534-10.24 20.48-10.24 37.547 0 18.773 3.413 32.427 10.24 39.253s15.36 11.947 25.6 11.947c8.533 0 15.36-1.707 20.48-6.827s8.533-11.946 11.946-23.893zm52.907-92.16h29.013v80.213c0 11.947 0 20.48 1.707 23.894 1.707 6.826 5.12 10.24 8.533 13.653s11.947 5.12 18.774 5.12c8.533 0 15.36-1.707 18.773-5.12s6.827-6.827 8.533-11.947 1.707-13.653 1.707-25.6v-81.92h29.013v76.8c0 17.067 0 30.72-1.706 37.547s-5.12 13.653-8.534 18.773-10.24 8.534-17.066 11.947-17.067 5.12-29.014 5.12c-13.653 0-23.893-1.707-32.426-5.12s-13.654-6.827-17.067-11.947-6.827-10.24-8.533-17.066c-1.707-8.534-3.414-20.48-3.414-37.547v-76.8z"/></svg>